<svg xmlns="http://www.w3.org/2000/svg" enable-background="new 0 0 50 50" fill="#24a1da" viewBox="0 0 50 50"><path d="M47.74382 1.01725L1.86641 19.02935c-.8728.3427-.9045 1.5662-.0507 1.9536l10.1422 4.6024c.2747.1248.4833.3604.5737.6482l4.3514 13.8478c.21981.6991 1.0652.9703 1.6505.5293l7.5741-5.7063c.3617-.2725.8564-.2853 1.2318-.0321l12.7029 8.5698c.6337.4274 1.4977.0648 1.6366-.6867l7.49591-40.5578C49.32611 1.37895 48.51871.71305 47.74382 1.01725zM19.94331 27.54945l-1.3686 7.7802-3.53289-11.1398 24.221-15.0333L19.94331 27.54945zM8.11682 29.58125c-.39061-.3906-1.02341-.3906-1.41411 0l-5.603 5.6025c-.3906.3907-.3906 1.0235 0 1.4141.3906.3906 1.0234.3906 1.41411 0l5.603-5.6026C8.50741 30.60465 8.50741 29.97185 8.11682 29.58125zM10.99231 41.74825l-5.60249 5.6025c-.39071.3906-.39071 1.0235 0 1.4141.39059.3906 1.02339.3906 1.414 0l5.60259-5.6026c.3906-.3906.3906-1.0234 0-1.414C12.01571 41.35765 11.38291 41.35765 10.99231 41.74825z"/><path d="M27.28771,41.74825l-5.603,5.6025c-0.3907,0.3906-0.3907,1.0235,0,1.4141c0.3906,0.3906,1.0234,0.3906,1.414,0l5.60311-5.6026c0.39059-0.3906,0.39059-1.0234,0-1.414C28.31111,41.35765,27.67831,41.35765,27.28771,41.74825z"/><path d="M47.74382 1.01725L1.86641 19.02935c-.8728.3427-.9045 1.5662-.0507 1.9536l10.1422 4.6024c.2747.1248.4833.3604.5737.6482l4.3514 13.8478c.21981.6991 1.0652.9703 1.6505.5293l7.5741-5.7063c.3617-.2725.8564-.2853 1.2318-.0321l12.7029 8.5698c.6337.4274 1.4977.0648 1.6366-.6867l7.49591-40.5578C49.32611 1.37895 48.51871.71305 47.74382 1.01725zM19.94331 27.54945l-1.3686 7.7802-3.53289-11.1398 24.221-15.0333L19.94331 27.54945zM8.11682 29.58125c-.39061-.3906-1.02341-.3906-1.41411 0l-5.603 5.6025c-.3906.3907-.3906 1.0235 0 1.4141.3906.3906 1.0234.3906 1.41411 0l5.603-5.6026C8.50741 30.60465 8.50741 29.97185 8.11682 29.58125zM10.99231 41.74825l-5.60249 5.6025c-.39071.3906-.39071 1.0235 0 1.4141.39059.3906 1.02339.3906 1.414 0l5.60259-5.6026c.3906-.3906.3906-1.0234 0-1.414C12.01571 41.35765 11.38291 41.35765 10.99231 41.74825z"/><path d="M27.28771,41.74825l-5.603,5.6025c-0.3907,0.3906-0.3907,1.0235,0,1.4141c0.3906,0.3906,1.0234,0.3906,1.414,0l5.60311-5.6026c0.39059-0.3906,0.39059-1.0234,0-1.414C28.31111,41.35765,27.67831,41.35765,27.28771,41.74825z"/></svg>