<svg xmlns="http://www.w3.org/2000/svg" width="64" height="64" viewBox="0 0 64 64"><path fill="#24A9E6" d="M61.763 7.078a25.503 25.503 0 0 1-8.213 3.213c-2.351-2.577-5.713-4.184-9.434-4.184-7.133 0-12.92 5.934-12.92 13.252 0 1.04.111 2.046.334 3.018-10.744-.554-20.263-5.825-26.643-13.853a13.499 13.499 0 0 0-1.75 6.672c0 4.597 2.266 8.652 5.735 11.029C6.756 26.161 5 25.558 3 24.572v.165C3 31.16 7.47 36.518 13.388 37.73c-1.085.312-2.22.467-3.399.467-.831 0-1.643-.08-2.428-.234 1.646 5.262 6.418 9.097 12.076 9.199-4.421 3.557-9.999 5.677-16.052 5.677-1.04 0-2.074-.06-3.084-.184 5.722 3.754 12.519 5.95 19.814 5.95 23.777 0 36.776-20.19 36.776-37.707 0-.574-.013-1.152-.033-1.717a26.523 26.523 0 0 0 6.444-6.858 25.293 25.293 0 0 1-7.423 2.086 13.24 13.24 0 0 0 5.684-7.331z"/><path fill="#24A9E6" d="M61.763 7.078a25.503 25.503 0 0 1-8.213 3.213c-2.351-2.577-5.713-4.184-9.434-4.184-7.133 0-12.92 5.934-12.92 13.252 0 1.04.111 2.046.334 3.018-10.744-.554-20.263-5.825-26.643-13.853a13.499 13.499 0 0 0-1.75 6.672c0 4.597 2.266 8.652 5.735 11.029C6.756 26.161 5 25.558 3 24.572v.165C3 31.16 7.47 36.518 13.388 37.73c-1.085.312-2.22.467-3.399.467-.831 0-1.643-.08-2.428-.234 1.646 5.262 6.418 9.097 12.076 9.199-4.421 3.557-9.999 5.677-16.052 5.677-1.04 0-2.074-.06-3.084-.184 5.722 3.754 12.519 5.95 19.814 5.95 23.777 0 36.776-20.19 36.776-37.707 0-.574-.013-1.152-.033-1.717a26.523 26.523 0 0 0 6.444-6.858 25.293 25.293 0 0 1-7.423 2.086 13.24 13.24 0 0 0 5.684-7.331z"/><path fill="#169FDB" d="M63.5 12.322a25.293 25.293 0 01-7.423 2.086 13.223 13.223 0 005.686-7.331 25.503 25.503 0 01-8.213 3.213c-2.351-2.577-5.713-4.184-9.434-4.184-7.133 0-12.92 5.934-12.92 13.252 0 1.04.111 2.046.334 3.018a.073.073 0 01-.015-.002L50.943 41.81c4.046-6.416 6.146-13.879 6.146-20.912 0-.574-.013-1.152-.033-1.717a26.528 26.528 0 006.444-6.859zM19.625 47.171c-4.42 3.551-9.994 5.667-16.041 5.667-1.04 0-2.074-.06-3.085-.184 5.722 3.754 12.519 5.95 19.814 5.95a38.05 38.05 0 009.555-1.191L19.625 47.171z"/><path fill="#3DC8F9" d="M61.763 7.078a25.503 25.503 0 01-8.213 3.213c-2.351-2.577-5.713-4.184-9.434-4.184-7.133 0-12.92 5.934-12.92 13.252 0 1.04.111 2.046.334 3.018-8.843-.455-16.854-4.113-22.969-9.867 6.28 6.633 14.898 10.902 24.5 11.397a13.443 13.443 0 01-.334-3.016c0-7.32 5.787-13.254 12.921-13.254 3.72 0 7.082 1.608 9.433 4.184M11.65 38.089a12.729 12.729 0 01-4.087-.126 13.295 13.295 0 004.079 6.155 13.324 13.324 0 01-2.547-4.625"/><path fill="#24A9E6" d="M61.303 15.202c.791-.914 1.538-1.863 2.197-2.88-.942.429-1.923.786-2.922 1.099"/><path fill="#3DC8F9" d="M1.796 53.072c-.271-.035-.702-.087-.997-.223a33.616 33.616 0 002.5 1.49c.602.042 1.208.204 1.817.204 6.053 0 11.63-2.543 16.053-5.543h-.021c-5.797 3-12.286 4.967-19.352 4.072zM7.856 25.421a13.388 13.388 0 01-3.188-8.694c0-2.36.606-4.577 1.662-6.502a38.305 38.305 0 01-1.443-1.7 13.499 13.499 0 00-1.75 6.672c0 4.117 1.841 7.794 4.719 10.224zM8.872 26.225C6.871 26.112 5 25.509 3 24.572v.165c0 4.117 1.833 7.79 4.704 10.218C5.73 32.629 5 29.594 5 26.268V26M26.896 15.793s1.957-5.994-8.929-9.052c0 0 .923 4.925 3.731 7.339 3.058 2.63 5.198 1.713 5.198 1.713zM29.121 13.369s2.261-1.32-.273-5.275c0 0-1.074 1.784-.87 3.309.224 1.659 1.143 1.966 1.143 1.966zM19.576 16.45s-2.383 1.089-4.159-3.259c0 0 2.076.149 3.207 1.193 1.229 1.139.952 2.066.952 2.066z"/><path fill="#24A9E6" d="M29.614 20.863s-2.451.927-3.931-3.531c0 0 2.062.288 3.119 1.405 1.15 1.22.812 2.126.812 2.126z"/><circle cx="23.288" cy="17.994" r=".979" fill="#24A9E6"/><circle cx="17.05" cy="10.533" r=".367" fill="#24A9E6"/><circle cx="24.817" cy="5.579" r=".184" fill="#24A9E6"/><circle cx="25.551" cy="8.392" r=".673" fill="#3DC8F9"/></svg>