<svg xmlns="http://www.w3.org/2000/svg" enable-background="new 0 0 24 24" viewBox="0 0 24 24"><polygon fill="#1677C7" points="0 12 0 24 24 24 24 0 0 0 0 12"/><polygon fill="#1368AD" points="12 0 0 0 0 24 12 24 12 0"/><path fill="#FFF" d="M14.563 19.626c.108-.062.511-.294.892-.515l.69-.4.145.214c.203.308.643.731.91.873.766.404 1.817.348 2.335-.118.193-.164.314-.406.314-.675l-.001-.047v.002c0-.278-.035-.4-.18-.609-.186-.267-.567-.49-1.649-.961-1.237-.533-1.771-.863-2.258-1.389-.294-.334-.521-.737-.653-1.178l-.006-.022c-.091-.339-.114-1.19-.042-1.531.255-1.196 1.158-2.029 2.461-2.277.423-.08 1.406-.051 1.821.053v.001c.61.153 1.074.423 1.501.865.221.235.549.666.575.769.008.031-1.036.73-1.668 1.123-.023.014-.115-.084-.217-.236-.31-.45-.633-.644-1.128-.679-.728-.05-1.196.331-1.193.968l-.001.037c0 .15.038.293.105.416l-.002-.004c.161.331.458.53 1.391.933 1.719.739 2.454 1.226 2.911 1.92.51.773.625 2.008.278 2.926-.38.998-1.325 1.676-2.655 1.899-.411.073-1.387.062-1.828-.017-.964-.172-1.878-.649-2.442-1.274-.221-.242-.652-.879-.625-.924C14.354 19.751 14.453 19.689 14.563 19.626L14.563 19.626zM5.259 12.064c0-.533.01-.979.026-.989.011-.017 1.913-.025 4.217-.021l4.195.011.011.98.008.983h-3.125v8.876H8.38v-8.876H5.259V12.064L5.259 12.064z"/><path fill="#DEDEDE" d="M21.007,16.488h-4.701c0.392,0.288,0.901,0.55,1.713,0.9c1.083,0.471,1.463,0.695,1.649,0.961c0.145,0.209,0.18,0.331,0.18,0.609v-0.002l0.001,0.047c0,0.27-0.121,0.511-0.314,0.675c-0.285,0.256-0.731,0.388-1.202,0.388c-0.386,0-0.788-0.088-1.133-0.27c-0.267-0.141-0.708-0.564-0.91-0.873l-0.145-0.214l-0.69,0.4c-0.381,0.221-0.784,0.453-0.892,0.515c-0.11,0.063-0.209,0.125-0.22,0.141c-0.027,0.045,0.404,0.682,0.625,0.924c0.564,0.625,1.478,1.102,2.442,1.274c0.241,0.043,0.641,0.066,1.021,0.066c0.317,0,0.62-0.016,0.807-0.049c1.33-0.223,2.275-0.901,2.655-1.899c0.347-0.918,0.232-2.153-0.278-2.926C21.456,16.916,21.263,16.699,21.007,16.488L21.007,16.488z"/><polygon fill="#DEDEDE" points="10.591 16.488 8.38 16.488 8.38 21.905 10.591 21.905 10.591 16.488"/></svg>